<svg xmlns="http://www.w3.org/2000/svg" version="1.1" xmlns:xlink="http://www.w3.org/1999/xlink" xmlns:svgjs="http://svgjs.com/svgjs" width="1500" height="900" preserveAspectRatio="none" viewBox="0 0 1500 900"><g mask="url(&quot;#SvgjsMask2778&quot;)" fill="none"><rect width="1500" height="900" x="0" y="0" fill="url(#SvgjsLinearGradient2779)"></rect><use xlink:href="#SvgjsSymbol2786" x="0" y="0"></use><use xlink:href="#SvgjsSymbol2786" x="0" y="720"></use><use xlink:href="#SvgjsSymbol2786" x="720" y="0"></use><use xlink:href="#SvgjsSymbol2786" x="720" y="720"></use><use xlink:href="#SvgjsSymbol2786" x="1440" y="0"></use><use xlink:href="#SvgjsSymbol2786" x="1440" y="720"></use></g><defs><mask id="SvgjsMask2778"><rect width="1500" height="900" fill="#ffffff"></rect></mask><linearGradient x1="0%" y1="50%" x2="100%" y2="50%" gradientUnits="userSpaceOnUse" id="SvgjsLinearGradient2779"><stop stop-color="rgba(0, 0, 0, 1)" offset="0.37"></stop><stop stop-color="rgba(26, 63, 114, 1)" offset="0.95"></stop></linearGradient><path d="M-1 0 a1 1 0 1 0 2 0 a1 1 0 1 0 -2 0z" id="SvgjsPath2783"></path><path d="M-3 0 a3 3 0 1 0 6 0 a3 3 0 1 0 -6 0z" id="SvgjsPath2782"></path><path d="M-5 0 a5 5 0 1 0 10 0 a5 5 0 1 0 -10 0z" id="SvgjsPath2780"></path><path d="M2 -2 L-2 2z" id="SvgjsPath2785"></path><path d="M6 -6 L-6 6z" id="SvgjsPath2781"></path><path d="M30 -30 L-30 30z" id="SvgjsPath2784"></path></defs><symbol id="SvgjsSymbol2786"><use xlink:href="#SvgjsPath2780" x="30" y="30" stroke="#1c538e"></use><use xlink:href="#SvgjsPath2781" x="30" y="90" stroke="#1c538e"></use><use xlink:href="#SvgjsPath2780" x="30" y="150" stroke="#1c538e"></use><use xlink:href="#SvgjsPath2781" x="30" y="210" stroke="#1c538e"></use><use xlink:href="#SvgjsPath2780" x="30" y="270" stroke="#1c538e"></use><use xlink:href="#SvgjsPath2780" x="30" y="330" stroke="#1c538e"></use><use xlink:href="#SvgjsPath2781" x="30" y="390" stroke="#1c538e"></use><use xlink:href="#SvgjsPath2780" x="30" y="450" stroke="#1c538e"></use><use xlink:href="#SvgjsPath2780" x="30" y="510" stroke="#1c538e"></use><use xlink:href="#SvgjsPath2782" x="30" y="570" stroke="#1c538e"></use><use xlink:href="#SvgjsPath2780" x="30" y="630" stroke="#1c538e"></use><use xlink:href="#SvgjsPath2783" x="30" y="690" stroke="#1c538e"></use><use xlink:href="#SvgjsPath2781" x="90" y="30" stroke="#1c538e"></use><use xlink:href="#SvgjsPath2780" x="90" y="90" stroke="#1c538e"></use><use xlink:href="#SvgjsPath2782" x="90" y="150" stroke="#1c538e"></use><use xlink:href="#SvgjsPath2784" x="90" y="210" stroke="#1c538e" stroke-width="3"></use><use xlink:href="#SvgjsPath2785" x="90" y="270" stroke="#1c538e"></use><use xlink:href="#SvgjsPath2781" x="90" y="330" stroke="#1c538e"></use><use xlink:href="#SvgjsPath2783" x="90" y="390" stroke="#1c538e"></use><use xlink:href="#SvgjsPath2780" x="90" y="450" stroke="#1c538e"></use><use xlink:href="#SvgjsPath2782" x="90" y="510" stroke="#1c538e"></use><use xlink:href="#SvgjsPath2781" x="90" y="570" stroke="#1c538e"></use><use xlink:href="#SvgjsPath2785" x="90" y="630" stroke="#1c538e"></use><use xlink:href="#SvgjsPath2782" x="90" y="690" stroke="#1c538e"></use><use xlink:href="#SvgjsPath2785" x="150" y="30" stroke="#1c538e"></use><use xlink:href="#SvgjsPath2780" x="150" y="90" stroke="#1c538e"></use><use xlink:href="#SvgjsPath2783" x="150" y="150" stroke="#1c538e"></use><use xlink:href="#SvgjsPath2781" x="150" y="210" stroke="#1c538e"></use><use xlink:href="#SvgjsPath2780" x="150" y="270" stroke="#1c538e"></use><use xlink:href="#SvgjsPath2780" x="150" y="330" stroke="#1c538e"></use><use xlink:href="#SvgjsPath2782" x="150" y="390" stroke="#1c538e"></use><use xlink:href="#SvgjsPath2780" x="150" y="450" stroke="#1c538e"></use><use xlink:href="#SvgjsPath2780" x="150" y="510" stroke="#1c538e"></use><use xlink:href="#SvgjsPath2780" x="150" y="570" stroke="#1c538e"></use><use xlink:href="#SvgjsPath2782" x="150" y="630" stroke="#1c538e"></use><use xlink:href="#SvgjsPath2781" x="150" y="690" stroke="#1c538e"></use><use xlink:href="#SvgjsPath2781" x="210" y="30" stroke="#1c538e"></use><use xlink:href="#SvgjsPath2781" x="210" y="90" stroke="#1c538e"></use><use xlink:href="#SvgjsPath2780" x="210" y="150" stroke="#1c538e"></use><use xlink:href="#SvgjsPath2781" x="210" y="210" stroke="#1c538e"></use><use xlink:href="#SvgjsPath2780" x="210" y="270" stroke="#1c538e"></use><use xlink:href="#SvgjsPath2781" x="210" y="330" stroke="#1c538e"></use><use xlink:href="#SvgjsPath2781" x="210" y="390" stroke="#1c538e"></use><use xlink:href="#SvgjsPath2780" x="210" y="450" stroke="#1c538e"></use><use xlink:href="#SvgjsPath2781" x="210" y="510" stroke="#1c538e"></use><use xlink:href="#SvgjsPath2780" x="210" y="570" stroke="#1c538e"></use><use xlink:href="#SvgjsPath2785" x="210" y="630" stroke="#1c538e"></use><use xlink:href="#SvgjsPath2785" x="210" y="690" stroke="#1c538e"></use><use xlink:href="#SvgjsPath2781" x="270" y="30" stroke="#1c538e"></use><use xlink:href="#SvgjsPath2780" x="270" y="90" stroke="#1c538e"></use><use xlink:href="#SvgjsPath2780" x="270" y="150" stroke="#1c538e"></use><use xlink:href="#SvgjsPath2781" x="270" y="210" stroke="#1c538e"></use><use xlink:href="#SvgjsPath2780" x="270" y="270" stroke="#1c538e"></use><use xlink:href="#SvgjsPath2785" x="270" y="330" stroke="#1c538e"></use><use xlink:href="#SvgjsPath2781" x="270" y="390" stroke="#1c538e"></use><use xlink:href="#SvgjsPath2785" x="270" y="450" stroke="#1c538e"></use><use xlink:href="#SvgjsPath2781" x="270" y="510" stroke="#1c538e"></use><use xlink:href="#SvgjsPath2781" x="270" y="570" stroke="#1c538e"></use><use xlink:href="#SvgjsPath2780" x="270" y="630" stroke="#1c538e"></use><use xlink:href="#SvgjsPath2780" x="270" y="690" stroke="#1c538e"></use><use xlink:href="#SvgjsPath2781" x="330" y="30" stroke="#1c538e"></use><use xlink:href="#SvgjsPath2780" x="330" y="90" stroke="#1c538e"></use><use xlink:href="#SvgjsPath2780" x="330" y="150" stroke="#1c538e"></use><use xlink:href="#SvgjsPath2781" x="330" y="210" stroke="#1c538e"></use><use xlink:href="#SvgjsPath2783" x="330" y="270" stroke="#1c538e"></use><use xlink:href="#SvgjsPath2781" x="330" y="330" stroke="#1c538e"></use><use xlink:href="#SvgjsPath2780" x="330" y="390" stroke="#1c538e"></use><use xlink:href="#SvgjsPath2783" x="330" y="450" stroke="#1c538e"></use><use xlink:href="#SvgjsPath2782" x="330" y="510" stroke="#1c538e"></use><use xlink:href="#SvgjsPath2781" x="330" y="570" stroke="#1c538e"></use><use xlink:href="#SvgjsPath2781" x="330" y="630" stroke="#1c538e"></use><use xlink:href="#SvgjsPath2780" x="330" y="690" stroke="#1c538e"></use><use xlink:href="#SvgjsPath2780" x="390" y="30" stroke="#1c538e"></use><use xlink:href="#SvgjsPath2780" x="390" y="90" stroke="#1c538e"></use><use xlink:href="#SvgjsPath2781" x="390" y="150" stroke="#1c538e"></use><use xlink:href="#SvgjsPath2781" x="390" y="210" stroke="#1c538e"></use><use xlink:href="#SvgjsPath2781" x="390" y="270" stroke="#1c538e"></use><use xlink:href="#SvgjsPath2781" x="390" y="330" stroke="#1c538e"></use><use xlink:href="#SvgjsPath2780" x="390" y="390" stroke="#1c538e"></use><use xlink:href="#SvgjsPath2781" x="390" y="450" stroke="#1c538e"></use><use xlink:href="#SvgjsPath2783" x="390" y="510" stroke="#1c538e"></use><use xlink:href="#SvgjsPath2781" x="390" y="570" stroke="#1c538e"></use><use xlink:href="#SvgjsPath2785" x="390" y="630" stroke="#1c538e"></use><use xlink:href="#SvgjsPath2785" x="390" y="690" stroke="#1c538e"></use><use xlink:href="#SvgjsPath2782" x="450" y="30" stroke="#1c538e"></use><use xlink:href="#SvgjsPath2780" x="450" y="90" stroke="#1c538e"></use><use xlink:href="#SvgjsPath2782" x="450" y="150" stroke="#1c538e"></use><use xlink:href="#SvgjsPath2780" x="450" y="210" stroke="#1c538e"></use><use xlink:href="#SvgjsPath2780" x="450" y="270" stroke="#1c538e"></use><use xlink:href="#SvgjsPath2781" x="450" y="330" stroke="#1c538e"></use><use xlink:href="#SvgjsPath2780" x="450" y="390" stroke="#1c538e"></use><use xlink:href="#SvgjsPath2780" x="450" y="450" stroke="#1c538e"></use><use xlink:href="#SvgjsPath2780" x="450" y="510" stroke="#1c538e"></use><use xlink:href="#SvgjsPath2781" x="450" y="570" stroke="#1c538e"></use><use xlink:href="#SvgjsPath2785" x="450" y="630" stroke="#1c538e"></use><use xlink:href="#SvgjsPath2781" x="450" y="690" stroke="#1c538e"></use><use xlink:href="#SvgjsPath2784" x="510" y="30" stroke="#1c538e" stroke-width="3"></use><use xlink:href="#SvgjsPath2782" x="510" y="90" stroke="#1c538e"></use><use xlink:href="#SvgjsPath2780" x="510" y="150" stroke="#1c538e"></use><use xlink:href="#SvgjsPath2781" x="510" y="210" stroke="#1c538e"></use><use xlink:href="#SvgjsPath2780" x="510" y="270" stroke="#1c538e"></use><use xlink:href="#SvgjsPath2781" x="510" y="330" stroke="#1c538e"></use><use xlink:href="#SvgjsPath2780" x="510" y="390" stroke="#1c538e"></use><use xlink:href="#SvgjsPath2783" x="510" y="450" stroke="#1c538e"></use><use xlink:href="#SvgjsPath2780" x="510" y="510" stroke="#1c538e"></use><use xlink:href="#SvgjsPath2782" x="510" y="570" stroke="#1c538e"></use><use xlink:href="#SvgjsPath2781" x="510" y="630" stroke="#1c538e"></use><use xlink:href="#SvgjsPath2781" x="510" y="690" stroke="#1c538e"></use><use xlink:href="#SvgjsPath2780" x="570" y="30" stroke="#1c538e"></use><use xlink:href="#SvgjsPath2785" x="570" y="90" stroke="#1c538e"></use><use xlink:href="#SvgjsPath2781" x="570" y="150" stroke="#1c538e"></use><use xlink:href="#SvgjsPath2781" x="570" y="210" stroke="#1c538e"></use><use xlink:href="#SvgjsPath2785" x="570" y="270" stroke="#1c538e"></use><use xlink:href="#SvgjsPath2780" x="570" y="330" stroke="#1c538e"></use><use xlink:href="#SvgjsPath2781" x="570" y="390" stroke="#1c538e"></use><use xlink:href="#SvgjsPath2780" x="570" y="450" stroke="#1c538e"></use><use xlink:href="#SvgjsPath2783" x="570" y="510" stroke="#1c538e"></use><use xlink:href="#SvgjsPath2784" x="570" y="570" stroke="#1c538e" stroke-width="3"></use><use xlink:href="#SvgjsPath2780" x="570" y="630" stroke="#1c538e"></use><use xlink:href="#SvgjsPath2785" x="570" y="690" stroke="#1c538e"></use><use xlink:href="#SvgjsPath2781" x="630" y="30" stroke="#1c538e"></use><use xlink:href="#SvgjsPath2782" x="630" y="90" stroke="#1c538e"></use><use xlink:href="#SvgjsPath2781" x="630" y="150" stroke="#1c538e"></use><use xlink:href="#SvgjsPath2781" x="630" y="210" stroke="#1c538e"></use><use xlink:href="#SvgjsPath2781" x="630" y="270" stroke="#1c538e"></use><use xlink:href="#SvgjsPath2782" x="630" y="330" stroke="#1c538e"></use><use xlink:href="#SvgjsPath2780" x="630" y="390" stroke="#1c538e"></use><use xlink:href="#SvgjsPath2780" x="630" y="450" stroke="#1c538e"></use><use xlink:href="#SvgjsPath2785" x="630" y="510" stroke="#1c538e"></use><use xlink:href="#SvgjsPath2781" x="630" y="570" stroke="#1c538e"></use><use xlink:href="#SvgjsPath2781" x="630" y="630" stroke="#1c538e"></use><use xlink:href="#SvgjsPath2782" x="630" y="690" stroke="#1c538e"></use><use xlink:href="#SvgjsPath2785" x="690" y="30" stroke="#1c538e"></use><use xlink:href="#SvgjsPath2781" x="690" y="90" stroke="#1c538e"></use><use xlink:href="#SvgjsPath2780" x="690" y="150" stroke="#1c538e"></use><use xlink:href="#SvgjsPath2783" x="690" y="210" stroke="#1c538e"></use><use xlink:href="#SvgjsPath2781" x="690" y="270" stroke="#1c538e"></use><use xlink:href="#SvgjsPath2781" x="690" y="330" stroke="#1c538e"></use><use xlink:href="#SvgjsPath2782" x="690" y="390" stroke="#1c538e"></use><use xlink:href="#SvgjsPath2781" x="690" y="450" stroke="#1c538e"></use><use xlink:href="#SvgjsPath2781" x="690" y="510" stroke="#1c538e"></use><use xlink:href="#SvgjsPath2783" x="690" y="570" stroke="#1c538e"></use><use xlink:href="#SvgjsPath2780" x="690" y="630" stroke="#1c538e"></use><use xlink:href="#SvgjsPath2781" x="690" y="690" stroke="#1c538e"></use></symbol></svg>